<?xml version="1.0" encoding="utf-8"?>
<!-- Generator: Adobe Illustrator 27.1.1, SVG Export Plug-In . SVG Version: 6.00 Build 0)  -->
<svg version="1.1" id="Layer_1" xmlns="http://www.w3.org/2000/svg" xmlns:xlink="http://www.w3.org/1999/xlink" x="0px" y="0px"
	 viewBox="0 0 179.1 31.1" style="enable-background:new 0 0 179.1 31.1;" xml:space="preserve">
<style type="text/css">
	.st0{fill:#FFFFFF;}
</style>
<path class="st0" d="M14.7,10.3c-1.1-0.5-2.3,0-2.8,1.1L8.2,20c-0.5,1.1,0,2.3,1.1,2.8c1.1,0.5,2.3,0,2.8-1.1l3.7-8.7
	C16.1,12,15.6,10.8,14.7,10.3z M22.2,8c-1.1-0.5-2.3,0-2.8,1.1l-2,4.8c-0.5,1.1,0,2.3,1.1,2.8c1.1,0.5,2.3,0,2.8-1.1l2-4.8
	C23.8,9.6,23.3,8.4,22.2,8z M28.5,10.7c-1.1-0.5-2.3,0-2.8,1.1L22,20.4c-0.5,1.1,0,2.3,1.1,2.8s2.3,0,2.8-1.1l3.7-8.7
	C29.9,12.2,29.5,11,28.5,10.7z M49.3,12.7c-0.5-0.7-1.1-1.3-1.8-1.8c-0.7-0.4-1.6-0.6-2.5-0.6c-0.8,0-1.7,0.2-2.4,0.6
	c-0.2,0.1-0.6,0.4-0.8,0.6c0-0.2-0.1-0.6-0.4-0.7c-0.2-0.2-0.5-0.4-0.8-0.4c-0.4,0-0.6,0.1-0.8,0.4c-0.2,0.2-0.4,0.5-0.4,0.8v8.8
	c0,0.4,0.1,0.6,0.4,0.8c0.2,0.2,0.5,0.4,0.8,0.4c0.4,0,0.6-0.1,0.8-0.4s0.4-0.5,0.4-0.8v-5.7c0-0.5,0.1-0.8,0.4-1.2
	c0.2-0.4,0.6-0.6,1-0.8c0.5-0.2,1-0.4,1.4-0.4c0.6,0,1.1,0.1,1.6,0.4c0.5,0.2,0.8,0.6,1.1,1c0.2,0.5,0.4,1.1,0.4,1.8v4.9
	c0,0.4,0.1,0.6,0.4,0.8s0.5,0.4,0.8,0.4s0.6-0.1,0.8-0.4c0.2-0.2,0.4-0.5,0.4-0.8v-4.9C49.9,14.4,49.7,13.4,49.3,12.7z M62.8,16.6
	c0.2-0.2,0.4-0.5,0.4-0.7c0-1.1-0.2-2-0.6-2.9c-0.4-0.8-1-1.4-1.8-1.9c-0.7-0.5-1.7-0.7-2.8-0.7s-2,0.2-2.9,0.7
	c-0.8,0.5-1.4,1.2-1.9,2s-0.7,1.8-0.7,3c0,1.1,0.2,2,0.7,2.9c0.5,0.8,1.2,1.6,2,2s1.9,0.7,3,0.7c0.6,0,1.3-0.1,1.9-0.4
	c0.7-0.2,1.2-0.5,1.7-0.8c0.2-0.1,0.4-0.5,0.4-0.7c0-0.2-0.1-0.6-0.4-0.7c-0.2-0.1-0.5-0.2-0.7-0.2c-0.2,0-0.5,0.1-0.7,0.2
	c-0.2,0.2-0.6,0.4-1,0.5s-0.8,0.2-1.2,0.2c-0.7,0-1.3-0.1-1.9-0.5c-0.6-0.4-1-0.7-1.3-1.3c-0.2-0.4-0.2-0.7-0.4-1.1h7.3
	C62.3,16.8,62.5,16.7,62.8,16.6z M58,12.3c0.6,0,1.2,0.1,1.6,0.5c0.5,0.2,0.7,0.7,1,1.2c0.1,0.4,0.2,0.6,0.4,1h-6.3
	c0.1-0.2,0.1-0.6,0.2-0.8c0.2-0.6,0.6-1,1.2-1.3C56.6,12.5,57.2,12.3,58,12.3z M75.7,11.5c0-0.4-0.1-0.6-0.4-0.8s-0.5-0.4-0.8-0.4
	c-0.4,0-0.6,0.1-0.8,0.4s-0.4,0.5-0.4,0.8V17c0,0.5-0.1,0.8-0.4,1.2s-0.6,0.6-1,0.8c-0.5,0.2-1,0.4-1.4,0.4c-0.6,0-1.1-0.1-1.6-0.4
	c-0.5-0.2-0.8-0.6-1.1-1c-0.2-0.5-0.4-1.1-0.4-1.8v-4.8c0-0.4-0.1-0.6-0.4-0.8s-0.5-0.4-0.8-0.4c-0.4,0-0.6,0.1-0.8,0.4
	c-0.2,0.2-0.4,0.5-0.4,0.8v4.9c0,1.1,0.2,2,0.6,2.9c0.5,0.7,1.1,1.3,1.8,1.8c0.7,0.4,1.6,0.6,2.5,0.6s1.7-0.2,2.4-0.6
	c0.2-0.1,0.6-0.4,0.8-0.6c0,0.2,0.1,0.6,0.4,0.7c0.2,0.2,0.5,0.4,0.8,0.4c0.4,0,0.6-0.1,0.8-0.4s0.4-0.5,0.4-0.8V11.5z M86.8,11.7
	v-0.2c0-0.4-0.2-0.6-0.6-0.8c-0.5-0.2-1.1-0.4-1.9-0.4s-1.6,0.2-2.3,0.6c-0.4,0.2-0.6,0.5-1,0.7c0-0.4-0.1-0.6-0.2-0.8
	c-0.2-0.2-0.5-0.2-0.8-0.2c-0.4,0-0.6,0.1-0.8,0.4c-0.2,0.2-0.4,0.5-0.4,0.8v8.7c0,0.4,0.1,0.6,0.4,0.8s0.5,0.2,0.8,0.2
	c0.4,0,0.6-0.1,0.8-0.4s0.2-0.5,0.2-0.8v-5.7c0-0.6,0.2-1.1,0.6-1.4c0.4-0.4,0.8-0.6,1.6-0.7c0.2-0.1,0.6-0.1,1-0.1
	c0.4,0,0.8,0,1.3,0.1h0.6c0.1,0,0.4-0.1,0.5-0.2C86.7,12.1,86.7,12,86.8,11.7z M99.4,15.8c0-1.1-0.2-1.9-0.7-2.8s-1.2-1.6-2-2
	c-0.8-0.5-1.8-0.7-2.9-0.7c-1.1,0-2,0.2-2.9,0.7c-0.8,0.5-1.6,1.2-2,2C88.3,13.9,88,14.9,88,16s0.2,2,0.7,2.9s1.1,1.6,1.9,2
	c0.8,0.5,1.7,0.7,2.6,0.7c1,0,1.9-0.2,2.6-0.7c0.4-0.2,0.7-0.5,1-0.8v0.4c0,0.4,0.1,0.6,0.4,0.8s0.5,0.4,0.8,0.4
	c0.4,0,0.6-0.1,0.8-0.4s0.4-0.5,0.4-0.8V15.8z M95.4,19.1c-0.5,0.4-1.1,0.5-1.7,0.5c-0.6,0-1.2-0.1-1.7-0.5c-0.5-0.4-1-0.7-1.2-1.3
	c-0.2-0.6-0.5-1.2-0.5-1.8c0-0.7,0.1-1.3,0.5-1.8c0.2-0.6,0.7-1,1.2-1.3c0.5-0.4,1.1-0.5,1.7-0.5c0.6,0,1.2,0.1,1.7,0.5
	c0.5,0.4,1,0.7,1.2,1.3c0.2,0.5,0.5,1.2,0.5,1.8c0,0.7-0.1,1.3-0.5,1.8C96.3,18.4,96,18.7,95.4,19.1z M112.6,13.1
	c-0.5-0.8-1.2-1.6-2-2s-1.8-0.7-2.9-0.7c-1.1,0-2,0.2-2.9,0.7c-0.8,0.5-1.6,1.2-2,2c-0.5,0.8-0.7,1.8-0.7,2.9v9.1
	c0,0.4,0.1,0.6,0.4,0.8c0.2,0.2,0.5,0.4,0.8,0.4c0.4,0,0.6-0.1,0.8-0.4c0.2-0.2,0.4-0.5,0.4-0.8V20c0.5,0.5,1,0.8,1.4,1.1
	c0.7,0.4,1.4,0.5,2.3,0.5c1,0,1.9-0.2,2.6-0.7c0.8-0.5,1.4-1.2,1.9-2c0.5-0.8,0.7-1.8,0.7-2.9C113.3,14.9,113.1,13.9,112.6,13.1z
	 M110.7,17.8c-0.4,0.6-0.7,1-1.2,1.3c-0.5,0.4-1.1,0.5-1.7,0.5c-0.6,0-1.2-0.1-1.7-0.5c-0.5-0.4-1-0.7-1.2-1.3s-0.5-1.2-0.5-1.8
	c0-0.7,0.1-1.3,0.5-1.8c0.2-0.6,0.7-1,1.2-1.3c0.5-0.4,1.1-0.5,1.7-0.5c0.6,0,1.2,0.1,1.7,0.5c0.5,0.4,1,0.7,1.2,1.3
	c0.2,0.5,0.5,1.2,0.5,1.8C111,16.7,110.9,17.3,110.7,17.8z M126.1,10.7c-0.2-0.2-0.5-0.4-0.8-0.4c-0.4,0-0.6,0.1-0.8,0.4
	c-0.2,0.2-0.4,0.5-0.4,0.8V17c0,0.5-0.1,0.8-0.4,1.2c-0.2,0.4-0.6,0.6-1,0.8c-0.5,0.2-1,0.4-1.4,0.4c-0.6,0-1.1-0.1-1.6-0.4
	s-0.8-0.6-1.1-1c-0.2-0.5-0.4-1.1-0.4-1.8v-4.8c0-0.4-0.1-0.6-0.4-0.8c-0.2-0.2-0.5-0.4-0.8-0.4c-0.4,0-0.6,0.1-0.8,0.4
	c-0.2,0.2-0.4,0.5-0.4,0.8v4.9c0,1.1,0.2,2,0.6,2.9c0.5,0.7,1.1,1.3,1.8,1.8c0.7,0.4,1.6,0.6,2.5,0.6c1,0,1.7-0.2,2.4-0.6
	c0.2-0.1,0.6-0.4,0.8-0.6c0,0.2,0.1,0.6,0.4,0.7c0.2,0.2,0.5,0.4,0.8,0.4c0.4,0,0.6-0.1,0.8-0.4c0.2-0.2,0.4-0.5,0.4-0.8v-8.9
	C126.3,11.1,126.3,10.9,126.1,10.7L126.1,10.7z M133.6,19.6c-0.2-0.2-0.5-0.4-0.7-0.4h-0.5c-0.2,0-0.4-0.1-0.6-0.4
	c-0.1-0.2-0.2-0.7-0.2-1.1V6.9c0-0.4-0.1-0.6-0.4-0.8s-0.5-0.4-0.8-0.4c-0.4,0-0.6,0.1-0.8,0.4c-0.2,0.2-0.4,0.5-0.4,0.8v10.8
	c0,0.7,0.1,1.4,0.4,1.9c0.2,0.6,0.6,1.1,1.1,1.3c0.5,0.4,1.1,0.5,1.7,0.5c0.4,0,0.7-0.1,1.1-0.4c0.2-0.2,0.5-0.5,0.5-0.8
	C133.9,20.2,133.9,19.8,133.6,19.6L133.6,19.6z M143.8,16.8c-0.2-0.5-0.7-0.8-1.3-1.1c-0.6-0.4-1.4-0.6-2.4-0.7
	c-0.7-0.1-1.2-0.2-1.6-0.5c-0.4-0.1-0.6-0.4-0.7-0.5c-0.1-0.2-0.1-0.5-0.1-0.6c0-0.4,0.1-0.6,0.5-0.7c0.4-0.2,0.8-0.2,1.4-0.2
	c0.5,0,1,0,1.3,0.1s0.7,0.4,1,0.6c0.2,0.2,0.5,0.4,0.8,0.4h0.2c0.2,0,0.5-0.1,0.6-0.2c0.2-0.1,0.4-0.4,0.4-0.7
	c0-0.2-0.1-0.5-0.2-0.7c-0.4-0.5-1-1-1.7-1.2c-0.7-0.2-1.4-0.5-2.4-0.5c-0.7,0-1.3,0.1-2,0.4c-0.6,0.2-1.2,0.6-1.6,1.1
	c-0.5,0.5-0.6,1.1-0.6,1.8c0,0.8,0.4,1.6,1,2c0.6,0.6,1.7,1,3,1.2c1.1,0.2,1.7,0.5,2,0.7s0.5,0.6,0.5,0.8c0,0.4-0.2,0.6-0.6,0.8
	s-1,0.4-1.7,0.4c-0.6,0-1.1-0.1-1.6-0.4s-0.8-0.5-1.1-0.7c-0.2-0.2-0.5-0.4-0.7-0.4h-0.1c-0.2,0-0.5,0.1-0.7,0.4
	c-0.2,0.2-0.4,0.5-0.5,0.7v0.1c0,0.2,0.1,0.5,0.2,0.7c0.5,0.5,1.1,0.8,1.9,1.1c0.8,0.2,1.7,0.5,2.6,0.5c1,0,1.8-0.1,2.4-0.5
	c0.6-0.4,1.2-0.7,1.4-1.2c0.4-0.5,0.5-1.1,0.5-1.7C144.1,17.6,144,17.2,143.8,16.8z M155.4,16.8c0.2,0,0.6-0.1,0.7-0.2
	c0.2-0.2,0.4-0.5,0.4-0.7c0-1.1-0.2-2-0.6-2.9c-0.4-0.8-1-1.4-1.8-1.9c-0.7-0.5-1.7-0.7-2.8-0.7c-1.1,0-2,0.2-2.9,0.7
	c-0.8,0.5-1.4,1.2-1.9,2s-0.7,1.8-0.7,3c0,1.1,0.2,2,0.7,2.9s1.2,1.6,2,2c0.8,0.5,1.9,0.7,3,0.7c0.6,0,1.3-0.1,1.9-0.4
	c0.7-0.2,1.2-0.5,1.7-0.8c0.2-0.1,0.4-0.5,0.4-0.7c0-0.2-0.1-0.6-0.4-0.7c-0.2-0.1-0.5-0.2-0.7-0.2c-0.2,0-0.5,0.1-0.7,0.2
	c-0.2,0.2-0.6,0.4-1,0.5s-0.8,0.2-1.2,0.2c-0.7,0-1.3-0.1-1.9-0.5c-0.6-0.4-1-0.7-1.3-1.3c-0.2-0.4-0.2-0.7-0.4-1.1h7.5V16.8z
	 M151.5,12.3c0.6,0,1.2,0.1,1.6,0.5c0.5,0.2,0.7,0.7,1,1.2c0.1,0.4,0.2,0.6,0.4,1h-6.3c0.1-0.2,0.1-0.6,0.2-0.8
	c0.2-0.6,0.6-1,1.2-1.3C150,12.5,150.7,12.3,151.5,12.3z"/>
</svg>
